:FULLY-SPECIFIED
:FORCE-ALL-JOINTS-BE-3DOF
:DEGREES
645
root 5.56462 16.4874 -2.97033 16.5272 13.5497 -1.48774
lfemur -18.2367 22.066 -26.6167
ltibia 35.4263 0 0
lfoot -36.0669 11.1114 0
ltoes 24.1859 0 0
rfemur -56.0873 -26.8746 28.2629
rtibia 63.4449 0 0
rfoot -5.39204 -4.07061 0
rtoes 4.95819 0 0
lowerback -0.811358 -3.57663 -5.08538
upperback -2.32338 -4.7812 0.745225
thorax -1.4632 -2.30586 3.61009
lowerneck -9.65863 -7.84916 -0.209687
upperneck 4.32648 -11.0363 7.64208
head 3.63172 -5.1639 1.86273
lclavicle -4.06846e-14 1.33333e-20 0
lhumerus -42.3283 -68.2612 122.616
lradius 73.907 0 0
lwrist 24.6566 0 0
lhand -4.60238 2.52873 0
lfingers 7.12502 0 0
lthumb 21.1754 31.3919 0
rclavicle -4.06846e-14 1.33333e-20 0
rhumerus -33.2628 3.98252 -74.8793
rradius 73.8806 0 0
rwrist -20.2287 0 0
rhand -28.1183 -38.1236 0
rfingers 7.12502 0 0
rthumb -1.50009 -788.097 0
646
root 5.55522 16.4574 -2.90493 16.8387 12.4962 -1.31151
lfemur -18.4787 22.594 -26.8986
ltibia 35.9111 0 0
lfoot -36.1602 11.1104 0
ltoes 23.6872 0 0
rfemur -57.219 -27.4049 29.5564
rtibia 64.0804 0 0
rfoot -6.03556 -3.69008 0
rtoes 4.22027 0 0
lowerback -0.831415 -3.63461 -5.14967
upperback -2.25788 -4.85753 0.601483
thorax -1.38417 -2.3475 3.49269
lowerneck -9.62892 -7.79666 -0.267171
upperneck 4.06478 -10.943 7.69261
head 3.53793 -5.12701 1.90035
lclavicle -3.36443e-14 4.37328e-15 0
lhumerus -42.8045 -68.6928 123.405
lradius 73.6809 0 0
lwrist 24.7413 0 0
lhand -4.71848 2.81574 0
lfingers 7.12502 0 0
lthumb 21.0638 31.6913 0
rclavicle -3.36443e-14 4.37328e-15 0
rhumerus -34.5411 2.65298 -75.448
rradius 71.6647 0 0
rwrist -19.2264 0 0
rhand -28.4363 -39.4235 0
rfingers 7.12502 0 0
rthumb -1.80719 -789.394 0
647
root 5.54581 16.4274 -2.83953 17.1503 11.4427 -1.13529
lfemur -18.7208 23.122 -27.1804
ltibia 36.3959 0 0
lfoot -36.2536 11.1094 0
ltoes 23.1885 0 0
rfemur -58.3507 -27.9353 30.8498
rtibia 64.716 0 0
rfoot -6.67907 -3.30956 0
rtoes 3.48236 0 0
lowerback -0.851472 -3.69259 -5.21396
upperback -2.19238 -4.93386 0.45774
thorax -1.30515 -2.38915 3.37529
lowerneck -9.59921 -7.74417 -0.324655
upperneck 3.80307 -10.8497 7.74313
head 3.44414 -5.09012 1.93797
lclavicle -2.6604e-14 8.74656e-15 0
lhumerus -43.2806 -69.1245 124.194
lradius 73.4549 0 0
lwrist 24.8261 0 0
lhand -4.83459 3.10274 0
lfingers 7.12502 0 0
lthumb 20.9523 31.9908 0
rclavicle -2.6604e-14 8.74656e-15 0
rhumerus -35.8194 1.32344 -76.0168
rradius 69.4488 0 0
rwrist -18.224 0 0
rhand -28.7542 -40.7234 0
rfingers 7.12502 0 0
rthumb -2.1143 -790.691 0
648
root 5.53641 16.3973 -2.77412 17.4619 10.3892 -0.959064
lfemur -18.9628 23.6499 -27.4622
ltibia 36.8807 0 0
lfoot -36.3469 11.1085 0
ltoes 22.6897 0 0
rfemur -59.4824 -28.4656 32.1433
rtibia 65.3515 0 0
rfoot -7.32258 -2.92903 0
rtoes 2.74444 0 0
lowerback -0.871529 -3.75056 -5.27824
upperback -2.12688 -5.0102 0.313997
thorax -1.22612 -2.4308 3.25788
lowerneck -9.56949 -7.69167 -0.382138
upperneck 3.54136 -10.7565 7.79365
head 3.35034 -5.05323 1.97558
lclavicle -1.95637e-14 1.31198e-14 0
lhumerus -43.7568 -69.5562 124.983
lradius 73.2288 0 0
lwrist 24.9109 0 0
lhand -4.95069 3.38975 0
lfingers 7.12502 0 0
lthumb 20.8407 32.2902 0
rclavicle -1.95637e-14 1.31198e-14 0
rhumerus -37.0976 -0.00610667 -76.5856
rradius 67.2328 0 0
rwrist -17.2216 0 0
rhand -29.0722 -42.0233 0
rfingers 7.12502 0 0
rthumb -2.42141 -791.989 0
649
root 5.52701 16.3673 -2.70872 17.7735 9.33564 -0.782839
lfemur -19.2049 24.1779 -27.744
ltibia 37.3655 0 0
lfoot -36.4402 11.1075 0
ltoes 22.191 0 0
rfemur -60.6141 -28.9959 33.4367
rtibia 65.987 0 0
rfoot -7.96609 -2.5485 0
rtoes 2.00652 0 0
lowerback -0.891586 -3.80854 -5.34253
upperback -2.06138 -5.08653 0.170255
thorax -1.14709 -2.47244 3.14048
lowerneck -9.53978 -7.63917 -0.439622
upperneck 3.27966 -10.6632 7.84418
head 3.25655 -5.01634 2.0132
lclavicle -1.25234e-14 1.74931e-14 0
lhumerus -44.2329 -69.9878 125.772
lradius 73.0028 0 0
lwrist 24.9957 0 0
lhand -5.0668 3.67676 0
lfingers 7.12502 0 0
lthumb 20.7292 32.5896 0
rclavicle -1.25234e-14 1.74931e-14 0
rhumerus -38.3759 -1.33565 -77.1544
rradius 65.0169 0 0
rwrist -16.2192 0 0
rhand -29.3902 -43.3232 0
rfingers 7.12502 0 0
rthumb -2.72852 -793.286 0
650
root 5.52571 16.3339 -2.61281 17.7411 8.20984 -0.378819
lfemur -18.5207 24.2185 -28.1859
ltibia 37.117 0 0
lfoot -36.7258 11.7082 0
ltoes 21.6009 0 0
rfemur -61.145 -29.3688 34.2738
rtibia 66.5705 0 0
rfoot -8.14729 -3.34093 0
rtoes 2.66531 0 0
lowerback -0.788199 -3.91119 -5.52459
upperback -1.98989 -5.2299 0.0136227
thorax -1.11676 -2.54478 3.08255
lowerneck -9.59143 -7.50734 -0.478983
upperneck 3.16652 -10.4629 7.66681
head 3.20863 -4.92671 1.97442
lclavicle -1.40806e-14 1.80232e-14 0
lhumerus -44.1236 -70.32 125.978
lradius 73.1532 0 0
lwrist 25.0335 0 0
lhand -4.92018 3.69867 0
lfingers 7.12502 0 0
lthumb 20.8701 32.5957 0
rclavicle -1.40806e-14 1.80232e-14 0
rhumerus -39.4795 -2.59211 -76.6951
rradius 63.7994 0 0
rwrist -16.3597 0 0
rhand -29.4019 -44.6129 0
rfingers 7.12502 0 0
rthumb -2.73982 -794.575 0
651
root 5.52441 16.3005 -2.51689 17.7088 7.08405 0.0252007
lfemur -17.8366 24.2592 -28.6277
ltibia 36.8686 0 0
lfoot -37.0114 12.3088 0
ltoes 21.0108 0 0
rfemur -61.676 -29.7417 35.1109
rtibia 67.154 0 0
rfoot -8.32848 -4.13335 0
rtoes 3.3241 0 0
lowerback -0.684811 -4.01385 -5.70666
upperback -1.91841 -5.37326 -0.14301
thorax -1.08643 -2.61713 3.02462
lowerneck -9.64307 -7.37551 -0.518345
upperneck 3.05337 -10.2626 7.48945
head 3.1607 -4.83708 1.93563
lclavicle -1.56377e-14 1.85533e-14 0
lhumerus -44.0143 -70.6521 126.185
lradius 73.3036 0 0
lwrist 25.0712 0 0
lhand -4.77355 3.72058 0
lfingers 7.12502 0 0
lthumb 21.0109 32.6019 0
rclavicle -1.56377e-14 1.85533e-14 0
rhumerus -40.5831 -3.84857 -76.2357
rradius 62.5819 0 0
rwrist -16.5001 0 0
rhand -29.4136 -45.9026 0
rfingers 7.12502 0 0
rthumb -2.75112 -795.865 0
652
root 5.52311 16.2672 -2.42098 17.6764 5.95825 0.429221
lfemur -17.1524 24.2998 -29.0696
ltibia 36.6201 0 0
lfoot -37.297 12.9095 0
ltoes 20.4207 0 0
rfemur -62.2069 -30.1146 35.9481
rtibia 67.7375 0 0
rfoot -8.50968 -4.92577 0
rtoes 3.98289 0 0
lowerback -0.581424 -4.11651 -5.88872
upperback -1.84692 -5.51662 -0.299642
thorax -1.0561 -2.68947 2.96669
lowerneck -9.69472 -7.24368 -0.557706
upperneck 2.94023 -10.0624 7.31208
head 3.11278 -4.74746 1.89684
lclavicle -1.71948e-14 1.90834e-14 0
lhumerus -43.9051 -70.9843 126.391
lradius 73.4539 0 0
lwrist 25.109 0 0
lhand -4.62692 3.74248 0
lfingers 7.12502 0 0
lthumb 21.1517 32.608 0
rclavicle -1.71948e-14 1.90834e-14 0
rhumerus -41.6867 -5.10503 -75.7764
rradius 61.3644 0 0
rwrist -16.6406 0 0
rhand -29.4253 -47.1924 0
rfingers 7.12502 0 0
rthumb -2.76243 -797.154 0
653
root 5.52181 16.2338 -2.32506 17.644 4.83245 0.83324
lfemur -16.4682 24.3404 -29.5115
ltibia 36.3717 0 0
lfoot -37.5826 13.5102 0
ltoes 19.8306 0 0
rfemur -62.7379 -30.4876 36.7852
rtibia 68.3211 0 0
rfoot -8.69088 -5.7182 0
rtoes 4.64168 0 0
lowerback -0.478037 -4.21916 -6.07078
upperback -1.77543 -5.65999 -0.456274
thorax -1.02577 -2.76181 2.90875
lowerneck -9.74636 -7.11185 -0.597067
upperneck 2.82709 -9.86207 7.13471
head 3.06485 -4.65783 1.85806
lclavicle -1.8752e-14 1.96134e-14 0
lhumerus -43.7958 -71.3164 126.597
lradius 73.6043 0 0
lwrist 25.1467 0 0
lhand -4.4803 3.76439 0
lfingers 7.12502 0 0
lthumb 21.2926 32.6142 0
rclavicle -1.8752e-14 1.96134e-14 0
rhumerus -42.7903 -6.3615 -75.3171
rradius 60.1468 0 0
rwrist -16.781 0 0
rhand -29.437 -48.4821 0
rfingers 7.12502 0 0
rthumb -2.77373 -798.444 0
654
root 5.52051 16.2004 -2.22915 17.6117 3.70666 1.23726
lfemur -15.7841 24.3811 -29.9533
ltibia 36.1232 0 0
lfoot -37.8682 14.1108 0
ltoes 19.2405 0 0
rfemur -63.2689 -30.8605 37.6223
rtibia 68.9046 0 0
rfoot -8.87207 -6.51062 0
rtoes 5.30047 0 0
lowerback -0.374649 -4.32181 -6.25285
upperback -1.70395 -5.80335 -0.612907
thorax -0.995438 -2.83416 2.85082
lowerneck -9.79801 -6.98002 -0.636429
upperneck 2.71394 -9.66179 6.95735
head 3.01692 -4.5682 1.81927
lclavicle -2.03091e-14 2.01435e-14 0
lhumerus -43.6865 -71.6486 126.804
lradius 73.7547 0 0
lwrist 25.1845 0 0
lhand -4.33367 3.7863 0
lfingers 7.12502 0 0
lthumb 21.4335 32.6204 0
rclavicle -2.03091e-14 2.01435e-14 0
rhumerus -43.8939 -7.61796 -74.8577
rradius 58.9293 0 0
rwrist -16.9215 0 0
rhand -29.4487 -49.7718 0
rfingers 7.12502 0 0
rthumb -2.78503 -799.734 0
